# xmcd CD database file
#
# Track frame offsets:
#	150
#	13125
#	27375
#	39300
#	52350
#	86100
#	98925
#	127125
#	140550
#	150600
#	164775
#	178875
#	190200
#	201600
#	211875
#	231450
#	243600
#	257475
#
# Disc length: 3579 seconds
#
# Revision: 0
# Processed by: cddbd v1.5.2PL0 Copyright (c) Steve Scherf et al.
# Submitted via: CDex 1.70beta2
#
DISCID=1c0df912
DTITLE=Ray Charles - Georgia On My Mind
DYEAR=2007
DGENRE=Blues
TTITLE0=Won't You Please Come Home
TTITLE1=Blues Is My Middle Name
TTITLE2=Can't You See Darling
TTITLE3=Don't Put All Your Dreams In One Basket
TTITLE4=Georgia On My Mind
TTITLE5=Heartbreaker
TTITLE6=I Go A Woman
TTITLE7=I'm Going Down To The River
TTITLE8=I'm Movin' On
TTITLE9=Kiss Me Baby
TTITLE10=Late In The Evening Blues
TTITLE11=Sentimental Blues
TTITLE12=She's On The Ball
TTITLE13=Sittin' On Top Of The World
TTITLE14=Talkin' About You
TTITLE15=Tell Me How Do You Feel
TTITLE16=This Love Of Mine
TTITLE17=You Be My Baby
EXTD=YEAR: 2007
EXTT0=
EXTT1=
EXTT2=
EXTT3=
EXTT4=
EXTT5=
EXTT6=
EXTT7=
EXTT8=
EXTT9=
EXTT10=
EXTT11=
EXTT12=
EXTT13=
EXTT14=
EXTT15=
EXTT16=
EXTT17=
PLAYORDER=
